# Blender v2.79 (sub 0) OBJ File: ''
# www.blender.org
o 1_Cube.002
v -49.897987 43.037682 45.664532
v -49.898010 43.037682 -40.655254
v -41.266029 43.037682 -40.655216
v -41.266006 43.037682 45.664555
v -49.897987 -0.122213 45.664539
v -49.898010 -0.122213 -40.655239
v -41.266029 -0.122213 -40.655224
v -41.266006 -0.122213 45.664566
v -49.897999 43.037682 2.504640
v -41.266018 43.037682 2.504668
v -41.266018 -0.122213 2.504670
v -49.897999 -0.122213 2.504650
v -49.897987 21.457733 45.664536
v -49.898010 21.457733 -40.655251
v -41.266029 21.457733 -40.655220
v -41.266006 21.457733 45.664562
v -49.898003 43.037682 -19.075308
v -45.581997 43.037682 45.664543
v -45.582020 43.037682 -40.655235
v -41.266010 43.037682 24.084610
v -49.897991 43.037682 24.084587
v -41.266026 43.037682 -19.075275
v -45.581997 -0.122213 45.664555
v -41.266014 -0.122213 24.084616
v -41.266026 -0.122213 -19.075277
v -41.266018 21.457733 2.504669
v -45.582020 -0.122213 -40.655231
v -49.898003 -0.122213 -19.075294
v -49.897991 -0.122213 24.084597
v -49.897999 21.457733 2.504645
v -45.582008 43.037682 2.504654
v -45.582001 43.037682 24.084599
v -49.897991 21.457733 24.084593
v -41.266026 21.457733 -19.075277
v -45.581997 21.457733 45.664547
v -41.266010 21.457733 24.084610
v -45.582020 21.457733 -40.655235
v -49.898003 21.457733 -19.075302
v -45.582016 43.037682 -19.075291
vt 1.000000 0.000000
vt 0.000000 1.000000
vt 0.000000 0.000000
vt 1.000000 0.000000
vt 0.000000 1.000000
vt 0.000000 0.000000
vt 1.000000 0.000000
vt 0.000000 1.000000
vt 0.000000 0.000000
vt 0.000000 0.000000
vt 1.000000 1.000000
vt 0.000000 1.000000
vt 0.000000 0.000000
vt 1.000000 1.000000
vt 0.000000 1.000000
vt 0.000000 0.000000
vt 1.000000 0.000000
vt 0.000000 1.000000
vt 0.000000 0.000000
vt 1.000000 0.000000
vt 0.000000 1.000000
vt 0.000000 0.000000
vt 1.000000 0.000000
vt 0.000000 1.000000
vt 0.000000 0.000000
vt 1.000000 0.000000
vt 0.000000 1.000000
vt 0.000000 0.000000
vt 1.000000 0.000000
vt 0.000000 1.000000
vt 0.000000 0.000000
vt 1.000000 0.000000
vt 0.000000 1.000000
vt 0.000000 0.000000
vt 1.000000 0.000000
vt 0.000000 1.000000
vt 0.000000 0.000000
vt 1.000000 0.000000
vt 0.000000 1.000000
vt 0.000000 0.000000
vt 1.000000 0.000000
vt 0.000000 1.000000
vt 0.000000 0.000000
vt 1.000000 0.000000
vt 0.000000 1.000000
vt 0.000000 0.000000
vt 1.000000 0.000000
vt 0.000000 1.000000
vt 0.000000 0.000000
vt 1.000000 0.000000
vt 0.000000 1.000000
vt 0.000000 1.000000
vt 1.000000 0.000000
vt 0.000000 1.000000
vt 0.000000 0.000000
vt 1.000000 1.000000
vt 0.000000 1.000000
vt 0.000000 0.000000
vt 1.000000 1.000000
vt 0.000000 1.000000
vt 1.000000 0.000000
vt 0.000000 1.000000
vt 0.000000 0.000000
vt 1.000000 0.000000
vt 0.000000 1.000000
vt 0.000000 0.000000
vt 1.000000 0.000000
vt 0.000000 1.000000
vt 0.000000 0.000000
vt 1.000000 0.000000
vt 0.000000 1.000000
vt 0.000000 0.000000
vt 1.000000 0.000000
vt 0.000000 1.000000
vt 0.000000 0.000000
vt 1.000000 0.000000
vt 0.000000 1.000000
vt 0.000000 0.000000
vt 1.000000 0.000000
vt 0.000000 1.000000
vt 0.000000 0.000000
vt 1.000000 0.000000
vt 0.000000 1.000000
vt 0.000000 0.000000
vt 1.000000 0.000000
vt 0.000000 1.000000
vt 0.000000 0.000000
vt 0.000000 1.000000
vt 0.000000 0.000000
vt 1.000000 1.000000
vt 1.000000 1.000000
vt 1.000000 0.000000
vt 1.000000 1.000000
vt 1.000000 1.000000
vt 1.000000 1.000000
vt 1.000000 1.000000
vt 1.000000 1.000000
vt 1.000000 1.000000
vt 1.000000 1.000000
vt 1.000000 1.000000
vt 1.000000 1.000000
vt 1.000000 1.000000
vt 1.000000 1.000000
vt 1.000000 1.000000
vt 1.000000 1.000000
vt 1.000000 0.000000
vt 1.000000 0.000000
vt 1.000000 1.000000
vt 1.000000 1.000000
vt 1.000000 1.000000
vt 1.000000 1.000000
vt 1.000000 1.000000
vt 1.000000 1.000000
vt 1.000000 1.000000
vn 0.0000 1.0000 -0.0000
vn -1.0000 0.0000 0.0000
vn 0.0000 0.0000 -1.0000
vn 1.0000 0.0000 -0.0000
vn -0.0000 0.0000 1.0000
s off
f 22/1/1 19/2/1 39/3/1
f 17/4/2 14/5/2 38/6/2
f 19/7/3 15/8/3 37/9/3
f 36/10/4 4/11/4 16/12/4
f 35/13/5 8/14/5 16/12/5
f 22/1/4 26/15/4 34/16/4
f 21/17/2 30/18/2 33/19/2
f 20/20/1 31/21/1 32/22/1
f 32/23/1 9/24/1 21/25/1
f 18/26/1 21/27/1 1/28/1
f 4/29/1 32/30/1 18/31/1
f 33/32/2 12/33/2 29/34/2
f 13/35/2 29/36/2 5/37/2
f 1/38/2 33/39/2 13/40/2
f 34/41/4 11/42/4 25/43/4
f 15/44/4 25/45/4 7/46/4
f 3/47/4 34/48/4 15/49/4
f 35/50/5 4/51/5 18/31/5
f 13/35/5 18/52/5 1/28/5
f 5/53/5 35/54/5 13/40/5
f 24/55/4 16/56/4 8/57/4
f 11/58/4 36/59/4 24/60/4
f 10/61/4 36/62/4 26/63/4
f 37/64/3 7/65/3 27/66/3
f 14/67/3 27/68/3 6/69/3
f 2/70/3 37/71/3 14/72/3
f 38/73/2 6/74/2 28/75/2
f 30/76/2 28/77/2 12/78/2
f 9/79/2 38/80/2 30/81/2
f 39/82/1 2/83/1 17/84/1
f 31/85/1 17/86/1 9/87/1
f 10/61/1 39/88/1 31/89/1
f 22/1/1 3/90/1 19/2/1
f 17/4/2 2/91/2 14/5/2
f 19/7/3 3/90/3 15/8/3
f 36/10/4 20/20/4 4/11/4
f 35/13/5 23/92/5 8/14/5
f 22/1/4 10/93/4 26/15/4
f 21/17/2 9/94/2 30/18/2
f 20/20/1 10/93/1 31/21/1
f 32/23/1 31/95/1 9/24/1
f 18/26/1 32/96/1 21/27/1
f 4/29/1 20/97/1 32/30/1
f 33/32/2 30/98/2 12/33/2
f 13/35/2 33/99/2 29/36/2
f 1/38/2 21/100/2 33/39/2
f 34/41/4 26/101/4 11/42/4
f 15/44/4 34/102/4 25/45/4
f 3/47/4 22/103/4 34/48/4
f 35/50/5 16/56/5 4/51/5
f 13/35/5 35/104/5 18/52/5
f 5/53/5 23/105/5 35/54/5
f 24/55/4 36/106/4 16/56/4
f 11/58/4 26/107/4 36/59/4
f 10/61/4 20/97/4 36/62/4
f 37/64/3 15/108/3 7/65/3
f 14/67/3 37/109/3 27/68/3
f 2/70/3 19/110/3 37/71/3
f 38/73/2 14/111/2 6/74/2
f 30/76/2 38/112/2 28/77/2
f 9/79/2 17/113/2 38/80/2
f 39/82/1 19/110/1 2/83/1
f 31/85/1 39/114/1 17/86/1
f 10/61/1 22/103/1 39/88/1
o Box.002_Plane.003
v -38.373833 5.981309 49.134464
v -38.373856 5.981309 -43.301796
v -52.789734 5.981309 49.134468
v -52.789757 5.981309 -43.301788
vn -0.0000 1.0000 0.0000
s off
f 41//6 42//6 40//6
f 41//6 43//6 42//6
