# Blender v2.79 (sub 0) OBJ File: ''
# www.blender.org
o 12_Cube.020
v 92.963348 43.037682 289.512756
v 84.331367 43.037682 289.512756
v 92.963348 -0.122213 289.512756
v 84.331367 -0.122213 289.512726
v 92.963371 43.037682 332.672668
v 84.331390 43.037682 332.672638
v 84.331398 -0.122213 332.672638
v 92.963371 -0.122213 332.672638
v 92.963348 21.457733 289.512756
v 84.331367 21.457733 289.512726
v 88.647354 43.037682 289.512756
v 84.331383 43.037682 311.092682
v 92.963364 43.037682 311.092712
v 88.647354 -0.122213 289.512756
v 84.331383 -0.122213 311.092682
v 84.331398 21.457733 332.672638
v 92.963364 -0.122213 311.092712
v 92.963371 21.457733 332.672638
v 88.647385 43.037682 332.672638
v 88.647369 43.037682 311.092712
v 92.963364 21.457733 311.092712
v 88.647354 21.457733 289.512756
v 84.331383 21.457733 311.092682
vt 0.000000 0.000000
vt 1.000000 1.000000
vt 0.000000 1.000000
vt 0.000000 0.000000
vt 1.000000 1.000000
vt 1.000000 0.000000
vt 0.000000 1.000000
vt 0.000000 0.000000
vt 1.000000 0.000000
vt 0.000000 1.000000
vt 0.000000 0.000000
vt 1.000000 0.000000
vt 0.000000 1.000000
vt 0.000000 0.000000
vt 1.000000 0.000000
vt 0.000000 1.000000
vt 0.000000 0.000000
vt 1.000000 0.000000
vt 0.000000 1.000000
vt 0.000000 0.000000
vt 1.000000 0.000000
vt 0.000000 1.000000
vt 0.000000 0.000000
vt 1.000000 0.000000
vt 0.000000 1.000000
vt 0.000000 0.000000
vt 1.000000 0.000000
vt 0.000000 1.000000
vt 0.000000 0.000000
vt 1.000000 0.000000
vt 0.000000 1.000000
vt 0.000000 1.000000
vt 1.000000 0.000000
vt 0.000000 1.000000
vt 0.000000 0.000000
vt 1.000000 1.000000
vt 0.000000 1.000000
vt 0.000000 0.000000
vt 1.000000 1.000000
vt 0.000000 1.000000
vt 1.000000 0.000000
vt 0.000000 1.000000
vt 0.000000 0.000000
vt 1.000000 1.000000
vt 1.000000 1.000000
vt 1.000000 0.000000
vt 1.000000 1.000000
vt 1.000000 1.000000
vt 1.000000 1.000000
vt 1.000000 1.000000
vt 1.000000 1.000000
vt 1.000000 1.000000
vt 1.000000 1.000000
vt 1.000000 1.000000
vt 1.000000 0.000000
vt 1.000000 0.000000
vn -1.0000 0.0000 0.0000
vn 0.0000 0.0000 -1.0000
vn 1.0000 0.0000 -0.0000
vn 0.0000 1.0000 0.0000
vn 0.0000 0.0000 1.0000
s off
f 23/1/1 2/2/1 10/3/1
f 22/4/2 4/5/2 10/3/2
f 13/6/3 18/7/3 21/8/3
f 12/9/4 19/10/4 20/11/4
f 20/12/4 5/13/4 13/14/4
f 11/15/4 13/16/4 1/17/4
f 2/18/4 20/19/4 11/20/4
f 21/21/3 8/22/3 17/23/3
f 9/24/3 17/25/3 3/26/3
f 1/27/3 21/28/3 9/29/3
f 22/30/2 2/31/2 11/20/2
f 9/24/2 11/32/2 1/17/2
f 3/33/2 22/34/2 9/29/2
f 15/35/1 10/36/1 4/37/1
f 7/38/1 23/39/1 15/40/1
f 6/41/1 23/42/1 16/43/1
f 19/44/5 6/45/5 16/43/5
f 23/1/1 12/9/1 2/2/1
f 22/4/2 14/46/2 4/5/2
f 13/6/3 5/47/3 18/7/3
f 12/9/4 6/45/4 19/10/4
f 20/12/4 19/44/4 5/13/4
f 11/15/4 20/48/4 13/16/4
f 2/18/4 12/49/4 20/19/4
f 21/21/3 18/50/3 8/22/3
f 9/24/3 21/51/3 17/25/3
f 1/27/3 13/52/3 21/28/3
f 22/30/2 10/36/2 2/31/2
f 9/24/2 22/53/2 11/32/2
f 3/33/2 14/54/2 22/34/2
f 15/35/1 23/55/1 10/36/1
f 7/38/1 16/56/1 23/39/1
f 6/41/1 12/49/1 23/42/1
f 16/43/5 7/38/5 19/44/5
f 7/38/5 8/22/5 19/44/5
f 18/50/5 5/47/5 19/44/5
f 8/22/5 18/50/5 19/44/5
o Box.016_Plane.021
v 81.531219 5.981308 286.208832
v 81.531265 5.981308 336.019440
v 96.028374 5.981307 286.208832
v 96.028412 5.981307 336.019409
vn 0.0000 1.0000 0.0000
s off
f 25//6 26//6 24//6
f 25//6 27//6 26//6
