# Blender v2.79 (sub 0) OBJ File: ''
# www.blender.org
o 13_Cube.017
v 127.967285 43.037682 339.094543
v 127.967300 43.037682 330.462555
v 127.967300 -0.122213 339.094543
v 127.967316 -0.122213 330.462555
v 84.807396 43.037682 339.094543
v 84.807419 43.037682 330.462585
v 84.807426 -0.122213 330.462585
v 84.807404 -0.122213 339.094543
v 127.967293 21.457733 339.094543
v 127.967316 21.457733 330.462555
v 127.967300 43.037682 334.778534
v 106.387360 43.037682 330.462555
v 106.387344 43.037682 339.094543
v 127.967308 -0.122213 334.778534
v 106.387367 -0.122213 330.462555
v 84.807419 21.457733 330.462585
v 106.387352 -0.122213 339.094543
v 84.807396 21.457733 339.094543
v 84.807404 43.037682 334.778564
v 106.387352 43.037682 334.778564
v 106.387344 21.457733 339.094543
v 127.967300 21.457733 334.778534
v 106.387360 21.457733 330.462555
vt 0.000000 0.000000
vt 1.000000 1.000000
vt 0.000000 1.000000
vt 0.000000 0.000000
vt 1.000000 1.000000
vt 1.000000 0.000000
vt 0.000000 1.000000
vt 0.000000 0.000000
vt 1.000000 0.000000
vt 0.000000 1.000000
vt 0.000000 0.000000
vt 1.000000 0.000000
vt 0.000000 1.000000
vt 0.000000 0.000000
vt 1.000000 0.000000
vt 0.000000 1.000000
vt 0.000000 0.000000
vt 1.000000 0.000000
vt 0.000000 1.000000
vt 0.000000 0.000000
vt 1.000000 0.000000
vt 0.000000 1.000000
vt 0.000000 0.000000
vt 1.000000 0.000000
vt 0.000000 1.000000
vt 0.000000 0.000000
vt 1.000000 0.000000
vt 0.000000 1.000000
vt 0.000000 0.000000
vt 1.000000 0.000000
vt 0.000000 1.000000
vt 0.000000 1.000000
vt 1.000000 0.000000
vt 0.000000 1.000000
vt 0.000000 0.000000
vt 1.000000 1.000000
vt 0.000000 1.000000
vt 0.000000 0.000000
vt 1.000000 1.000000
vt 0.000000 1.000000
vt 1.000000 0.000000
vt 0.000000 1.000000
vt 0.000000 0.000000
vt 1.000000 1.000000
vt 1.000000 1.000000
vt 1.000000 0.000000
vt 1.000000 1.000000
vt 1.000000 1.000000
vt 1.000000 1.000000
vt 1.000000 1.000000
vt 1.000000 1.000000
vt 1.000000 1.000000
vt 1.000000 1.000000
vt 1.000000 1.000000
vt 1.000000 0.000000
vt 1.000000 0.000000
vn 0.0000 0.0000 -1.0000
vn 1.0000 0.0000 0.0000
vn 0.0000 0.0000 1.0000
vn 0.0000 1.0000 0.0000
vn -1.0000 0.0000 -0.0000
s off
f 23/1/1 2/2/1 10/3/1
f 22/4/2 4/5/2 10/3/2
f 13/6/3 18/7/3 21/8/3
f 12/9/4 19/10/4 20/11/4
f 20/12/4 5/13/4 13/14/4
f 11/15/4 13/16/4 1/17/4
f 2/18/4 20/19/4 11/20/4
f 21/21/3 8/22/3 17/23/3
f 9/24/3 17/25/3 3/26/3
f 1/27/3 21/28/3 9/29/3
f 22/30/2 2/31/2 11/20/2
f 9/24/2 11/32/2 1/17/2
f 3/33/2 22/34/2 9/29/2
f 15/35/1 10/36/1 4/37/1
f 7/38/1 23/39/1 15/40/1
f 6/41/1 23/42/1 16/43/1
f 19/44/5 6/45/5 16/43/5
f 23/1/1 12/9/1 2/2/1
f 22/4/2 14/46/2 4/5/2
f 13/6/3 5/47/3 18/7/3
f 12/9/4 6/45/4 19/10/4
f 20/12/4 19/44/4 5/13/4
f 11/15/4 20/48/4 13/16/4
f 2/18/4 12/49/4 20/19/4
f 21/21/3 18/50/3 8/22/3
f 9/24/3 21/51/3 17/25/3
f 1/27/3 13/52/3 21/28/3
f 22/30/2 10/36/2 2/31/2
f 9/24/2 22/53/2 11/32/2
f 3/33/2 14/54/2 22/34/2
f 15/35/1 23/55/1 10/36/1
f 7/38/1 16/56/1 23/39/1
f 6/41/1 12/49/1 23/42/1
f 16/43/5 7/38/5 19/44/5
f 7/38/5 8/22/5 19/44/5
f 18/50/5 5/47/5 19/44/5
f 8/22/5 18/50/5 19/44/5
o Box.015_Plane.018
v 131.271194 5.981308 327.662415
v 81.460609 5.981308 327.662476
v 131.271194 5.981307 342.159576
v 81.460617 5.981307 342.159607
vn 0.0000 1.0000 0.0000
s off
f 25//6 26//6 24//6
f 25//6 27//6 26//6
