# Blender v2.79 (sub 0) OBJ File: ''
# www.blender.org
o 18_Cube.024
v 303.113831 43.037682 251.452545
v 294.481873 43.037682 251.452530
v 303.113831 -0.122213 251.452545
v 294.481873 -0.122213 251.452515
v 303.113861 43.037682 294.612457
v 294.481903 43.037682 294.612427
v 294.481903 -0.122213 294.612427
v 303.113861 -0.122213 294.612427
v 303.113831 21.457733 251.452545
v 294.481873 21.457733 251.452530
v 298.797852 43.037682 251.452545
v 294.481873 43.037682 273.032471
v 303.113861 43.037682 273.032501
v 298.797852 -0.122213 251.452530
v 294.481873 -0.122213 273.032471
v 294.481903 21.457733 294.612427
v 303.113861 -0.122213 273.032501
v 303.113861 21.457733 294.612427
v 298.797882 43.037682 294.612427
v 298.797882 43.037682 273.032471
v 303.113861 21.457733 273.032501
v 298.797852 21.457733 251.452545
v 294.481873 21.457733 273.032471
vt 0.000000 0.000000
vt 1.000000 1.000000
vt 0.000000 1.000000
vt 0.000000 0.000000
vt 1.000000 1.000000
vt 1.000000 0.000000
vt 0.000000 1.000000
vt 0.000000 0.000000
vt 1.000000 0.000000
vt 0.000000 1.000000
vt 0.000000 0.000000
vt 1.000000 0.000000
vt 0.000000 1.000000
vt 0.000000 0.000000
vt 1.000000 0.000000
vt 0.000000 1.000000
vt 0.000000 0.000000
vt 1.000000 0.000000
vt 0.000000 1.000000
vt 0.000000 0.000000
vt 1.000000 0.000000
vt 0.000000 1.000000
vt 0.000000 0.000000
vt 1.000000 0.000000
vt 0.000000 1.000000
vt 0.000000 0.000000
vt 1.000000 0.000000
vt 0.000000 1.000000
vt 0.000000 0.000000
vt 1.000000 0.000000
vt 0.000000 1.000000
vt 0.000000 1.000000
vt 1.000000 0.000000
vt 0.000000 1.000000
vt 0.000000 0.000000
vt 1.000000 1.000000
vt 0.000000 1.000000
vt 0.000000 0.000000
vt 1.000000 1.000000
vt 0.000000 1.000000
vt 1.000000 0.000000
vt 0.000000 1.000000
vt 0.000000 0.000000
vt 1.000000 1.000000
vt 1.000000 1.000000
vt 1.000000 0.000000
vt 1.000000 1.000000
vt 1.000000 1.000000
vt 1.000000 1.000000
vt 1.000000 1.000000
vt 1.000000 1.000000
vt 1.000000 1.000000
vt 1.000000 1.000000
vt 1.000000 1.000000
vt 1.000000 0.000000
vt 1.000000 0.000000
vn -1.0000 0.0000 0.0000
vn 0.0000 0.0000 -1.0000
vn 1.0000 0.0000 0.0000
vn 0.0000 1.0000 0.0000
vn 0.0000 0.0000 1.0000
s off
f 23/1/1 2/2/1 10/3/1
f 22/4/2 4/5/2 10/3/2
f 13/6/3 18/7/3 21/8/3
f 12/9/4 19/10/4 20/11/4
f 20/12/4 5/13/4 13/14/4
f 11/15/4 13/16/4 1/17/4
f 2/18/4 20/19/4 11/20/4
f 21/21/3 8/22/3 17/23/3
f 9/24/3 17/25/3 3/26/3
f 1/27/3 21/28/3 9/29/3
f 22/30/2 2/31/2 11/20/2
f 9/24/2 11/32/2 1/17/2
f 3/33/2 22/34/2 9/29/2
f 15/35/1 10/36/1 4/37/1
f 7/38/1 23/39/1 15/40/1
f 6/41/1 23/42/1 16/43/1
f 19/44/5 6/45/5 16/43/5
f 23/1/1 12/9/1 2/2/1
f 22/4/2 14/46/2 4/5/2
f 13/6/3 5/47/3 18/7/3
f 12/9/4 6/45/4 19/10/4
f 20/12/4 19/44/4 5/13/4
f 11/15/4 20/48/4 13/16/4
f 2/18/4 12/49/4 20/19/4
f 21/21/3 18/50/3 8/22/3
f 9/24/3 21/51/3 17/25/3
f 1/27/3 13/52/3 21/28/3
f 22/30/2 10/36/2 2/31/2
f 9/24/2 22/53/2 11/32/2
f 3/33/2 14/54/2 22/34/2
f 15/35/1 23/55/1 10/36/1
f 7/38/1 16/56/1 23/39/1
f 6/41/1 12/49/1 23/42/1
f 16/43/5 7/38/5 19/44/5
f 7/38/5 8/22/5 19/44/5
f 18/50/5 5/47/5 19/44/5
f 8/22/5 18/50/5 19/44/5
o Box.003_Plane.025
v 291.681732 5.981308 248.148636
v 291.681793 5.981308 297.959229
v 306.178894 5.981307 248.148621
v 306.178925 5.981307 297.959198
vn 0.0000 1.0000 0.0000
s off
f 25//6 26//6 24//6
f 25//6 27//6 26//6
