# Blender v2.79 (sub 0) OBJ File: ''
# www.blender.org
o 17.007_Cube.050
v 42.347198 43.037682 788.399719
v 128.666992 43.037682 788.399719
v 128.666946 43.037682 797.031677
v 42.347176 43.037682 797.031677
v 42.347191 -0.122213 788.399719
v 128.666962 -0.122213 788.399719
v 128.666962 -0.122213 797.031677
v 42.347164 -0.122213 797.031677
v 85.507095 43.037682 788.399719
v 85.507065 43.037682 797.031677
v 85.507057 -0.122213 797.031677
v 85.507080 -0.122213 788.399719
v 42.347195 21.457733 788.399719
v 128.666977 21.457733 788.399719
v 128.666946 21.457733 797.031677
v 42.347168 21.457733 797.031677
v 107.087036 43.037682 788.399719
v 42.347187 43.037682 792.715698
v 128.666962 43.037682 792.715698
v 63.927116 43.037682 797.031677
v 63.927147 43.037682 788.399719
v 107.087006 43.037682 797.031677
v 42.347176 -0.122213 792.715698
v 63.927113 -0.122213 797.031677
v 107.087006 -0.122213 797.031677
v 85.507057 21.457733 797.031677
v 128.666962 -0.122213 792.715698
v 107.087029 -0.122213 788.399719
v 63.927135 -0.122213 788.399719
v 85.507088 21.457733 788.399719
v 85.507080 43.037682 792.715698
v 63.927132 43.037682 792.715698
v 63.927139 21.457733 788.399719
v 107.087006 21.457733 797.031677
v 42.347183 21.457733 792.715698
v 63.927116 21.457733 797.031677
v 128.666962 21.457733 792.715698
v 107.087036 21.457733 788.399719
v 107.087021 43.037682 792.715698
vt 1.000000 0.000000
vt 0.000000 1.000000
vt 0.000000 0.000000
vt 1.000000 0.000000
vt 0.000000 1.000000
vt 0.000000 0.000000
vt 1.000000 0.000000
vt 0.000000 1.000000
vt 0.000000 0.000000
vt 0.000000 0.000000
vt 1.000000 1.000000
vt 0.000000 1.000000
vt 0.000000 0.000000
vt 1.000000 1.000000
vt 0.000000 1.000000
vt 0.000000 0.000000
vt 1.000000 0.000000
vt 0.000000 1.000000
vt 0.000000 0.000000
vt 1.000000 0.000000
vt 0.000000 1.000000
vt 0.000000 0.000000
vt 1.000000 0.000000
vt 0.000000 1.000000
vt 0.000000 0.000000
vt 1.000000 0.000000
vt 0.000000 1.000000
vt 0.000000 0.000000
vt 1.000000 0.000000
vt 0.000000 1.000000
vt 0.000000 0.000000
vt 1.000000 0.000000
vt 0.000000 1.000000
vt 0.000000 0.000000
vt 1.000000 0.000000
vt 0.000000 1.000000
vt 0.000000 0.000000
vt 1.000000 0.000000
vt 0.000000 1.000000
vt 0.000000 0.000000
vt 1.000000 0.000000
vt 0.000000 1.000000
vt 0.000000 0.000000
vt 1.000000 0.000000
vt 0.000000 1.000000
vt 0.000000 0.000000
vt 1.000000 0.000000
vt 0.000000 1.000000
vt 0.000000 0.000000
vt 1.000000 0.000000
vt 0.000000 1.000000
vt 0.000000 1.000000
vt 1.000000 0.000000
vt 0.000000 1.000000
vt 0.000000 0.000000
vt 1.000000 1.000000
vt 0.000000 1.000000
vt 0.000000 0.000000
vt 1.000000 1.000000
vt 0.000000 1.000000
vt 1.000000 0.000000
vt 0.000000 1.000000
vt 0.000000 0.000000
vt 1.000000 0.000000
vt 0.000000 1.000000
vt 0.000000 0.000000
vt 1.000000 0.000000
vt 0.000000 1.000000
vt 0.000000 0.000000
vt 1.000000 0.000000
vt 0.000000 1.000000
vt 0.000000 0.000000
vt 1.000000 0.000000
vt 0.000000 1.000000
vt 0.000000 0.000000
vt 1.000000 0.000000
vt 0.000000 1.000000
vt 0.000000 0.000000
vt 1.000000 0.000000
vt 0.000000 1.000000
vt 0.000000 0.000000
vt 1.000000 0.000000
vt 0.000000 1.000000
vt 0.000000 0.000000
vt 1.000000 0.000000
vt 0.000000 1.000000
vt 0.000000 0.000000
vt 0.000000 1.000000
vt 0.000000 0.000000
vt 1.000000 1.000000
vt 1.000000 1.000000
vt 1.000000 0.000000
vt 1.000000 1.000000
vt 1.000000 1.000000
vt 1.000000 1.000000
vt 1.000000 1.000000
vt 1.000000 1.000000
vt 1.000000 1.000000
vt 1.000000 1.000000
vt 1.000000 1.000000
vt 1.000000 1.000000
vt 1.000000 1.000000
vt 1.000000 1.000000
vt 1.000000 1.000000
vt 1.000000 1.000000
vt 1.000000 0.000000
vt 1.000000 0.000000
vt 1.000000 1.000000
vt 1.000000 1.000000
vt 1.000000 1.000000
vt 1.000000 1.000000
vt 1.000000 1.000000
vt 1.000000 1.000000
vt 1.000000 1.000000
vn 0.0000 1.0000 0.0000
vn 0.0000 0.0000 -1.0000
vn 1.0000 0.0000 0.0000
vn 0.0000 0.0000 1.0000
vn -1.0000 0.0000 -0.0000
s off
f 22/1/1 19/2/1 39/3/1
f 17/4/2 14/5/2 38/6/2
f 19/7/3 15/8/3 37/9/3
f 36/10/4 4/11/4 16/12/4
f 35/13/5 8/14/5 16/12/5
f 22/1/4 26/15/4 34/16/4
f 21/17/2 30/18/2 33/19/2
f 20/20/1 31/21/1 32/22/1
f 32/23/1 9/24/1 21/25/1
f 18/26/1 21/27/1 1/28/1
f 4/29/1 32/30/1 18/31/1
f 33/32/2 12/33/2 29/34/2
f 13/35/2 29/36/2 5/37/2
f 1/38/2 33/39/2 13/40/2
f 34/41/4 11/42/4 25/43/4
f 15/44/4 25/45/4 7/46/4
f 3/47/4 34/48/4 15/49/4
f 35/50/5 4/51/5 18/31/5
f 13/35/5 18/52/5 1/28/5
f 5/53/5 35/54/5 13/40/5
f 24/55/4 16/56/4 8/57/4
f 11/58/4 36/59/4 24/60/4
f 10/61/4 36/62/4 26/63/4
f 37/64/3 7/65/3 27/66/3
f 14/67/3 27/68/3 6/69/3
f 2/70/3 37/71/3 14/72/3
f 38/73/2 6/74/2 28/75/2
f 30/76/2 28/77/2 12/78/2
f 9/79/2 38/80/2 30/81/2
f 39/82/1 2/83/1 17/84/1
f 31/85/1 17/86/1 9/87/1
f 10/61/1 39/88/1 31/89/1
f 22/1/1 3/90/1 19/2/1
f 17/4/2 2/91/2 14/5/2
f 19/7/3 3/90/3 15/8/3
f 36/10/4 20/20/4 4/11/4
f 35/13/5 23/92/5 8/14/5
f 22/1/4 10/93/4 26/15/4
f 21/17/2 9/94/2 30/18/2
f 20/20/1 10/93/1 31/21/1
f 32/23/1 31/95/1 9/24/1
f 18/26/1 32/96/1 21/27/1
f 4/29/1 20/97/1 32/30/1
f 33/32/2 30/98/2 12/33/2
f 13/35/2 33/99/2 29/36/2
f 1/38/2 21/100/2 33/39/2
f 34/41/4 26/101/4 11/42/4
f 15/44/4 34/102/4 25/45/4
f 3/47/4 22/103/4 34/48/4
f 35/50/5 16/56/5 4/51/5
f 13/35/5 35/104/5 18/52/5
f 5/53/5 23/105/5 35/54/5
f 24/55/4 36/106/4 16/56/4
f 11/58/4 26/107/4 36/59/4
f 10/61/4 20/97/4 36/62/4
f 37/64/3 15/108/3 7/65/3
f 14/67/3 37/109/3 27/68/3
f 2/70/3 19/110/3 37/71/3
f 38/73/2 14/111/2 6/74/2
f 30/76/2 38/112/2 28/77/2
f 9/79/2 17/113/2 38/80/2
f 39/82/1 19/110/1 2/83/1
f 31/85/1 39/114/1 17/86/1
f 10/61/1 22/103/1 39/88/1
o Box.043_Plane.051
v 39.043282 5.981308 799.831787
v 131.150955 5.981308 799.831787
v 39.043282 5.981307 785.334656
v 131.150955 5.981307 785.334656
vn 0.0000 1.0000 -0.0000
s off
f 41//6 42//6 40//6
f 41//6 43//6 42//6
