# Blender v2.79 (sub 0) OBJ File: ''
# www.blender.org
o Plane_Plane.096
v 296.594849 42.699268 -69.185867
v -119.853073 42.699268 -69.185867
v 296.594849 42.699268 347.262024
v -119.853073 42.699268 347.262024
v 296.594849 42.699268 139.038086
v 88.370880 42.699268 -69.185867
v -119.853073 42.699268 139.038086
v 88.370880 42.699268 347.262024
v 88.370880 42.699268 139.038086
v 296.594849 42.699268 34.926109
v -15.741096 42.699268 -69.185867
v -119.853073 42.699268 243.150055
v 192.482849 42.699268 347.262024
v 296.594849 42.699268 243.150055
v 192.482849 42.699268 -69.185867
v -119.853073 42.699268 34.926109
v -15.741096 42.699268 347.262024
v 88.370880 42.699268 243.150055
v 88.370880 42.699268 34.926109
v 192.482849 42.699268 139.038086
v -15.741096 42.699268 139.038086
v -15.741096 42.699268 34.926109
v 192.482849 42.699268 34.926109
v 192.482849 42.699268 243.150055
v -15.741096 42.699268 243.150055
vt 1.000000 0.000000
vt 0.000000 0.000000
vt 0.000000 1.000000
vt 1.000000 0.000000
vt 0.000000 0.000000
vt 0.000000 1.000000
vt 1.000000 0.000000
vt 0.000000 0.000000
vt 0.000000 1.000000
vt 1.000000 0.000000
vt 0.000000 0.000000
vt 0.000000 1.000000
vt 1.000000 0.000000
vt 0.000000 0.000000
vt 0.000000 1.000000
vt 1.000000 0.000000
vt 0.000000 0.000000
vt 0.000000 1.000000
vt 1.000000 0.000000
vt 0.000000 0.000000
vt 0.000000 1.000000
vt 1.000000 0.000000
vt 0.000000 0.000000
vt 0.000000 1.000000
vt 1.000000 0.000000
vt 0.000000 0.000000
vt 0.000000 1.000000
vt 1.000000 0.000000
vt 0.000000 0.000000
vt 0.000000 1.000000
vt 1.000000 0.000000
vt 0.000000 0.000000
vt 0.000000 1.000000
vt 1.000000 0.000000
vt 0.000000 0.000000
vt 0.000000 1.000000
vt 1.000000 0.000000
vt 0.000000 0.000000
vt 0.000000 1.000000
vt 1.000000 0.000000
vt 0.000000 0.000000
vt 0.000000 1.000000
vt 1.000000 0.000000
vt 0.000000 0.000000
vt 0.000000 1.000000
vt 1.000000 0.000000
vt 0.000000 0.000000
vt 0.000000 1.000000
vt 1.000000 1.000000
vt 1.000000 1.000000
vt 1.000000 1.000000
vt 1.000000 1.000000
vt 1.000000 1.000000
vt 1.000000 1.000000
vt 1.000000 1.000000
vt 1.000000 1.000000
vt 1.000000 1.000000
vt 1.000000 1.000000
vt 1.000000 1.000000
vt 1.000000 1.000000
vt 1.000000 1.000000
vt 1.000000 1.000000
vt 1.000000 1.000000
vt 1.000000 1.000000
vn 0.0000 -1.0000 0.0000
s off
f 12/1/1 25/2/1 17/3/1
f 18/4/1 24/5/1 13/6/1
f 19/7/1 23/8/1 20/9/1
f 16/10/1 22/11/1 21/12/1
f 22/13/1 19/14/1 9/15/1
f 11/16/1 6/17/1 19/18/1
f 2/19/1 11/20/1 22/21/1
f 23/22/1 10/23/1 5/24/1
f 15/25/1 1/26/1 10/27/1
f 6/28/1 15/29/1 23/30/1
f 24/31/1 14/32/1 3/33/1
f 20/34/1 5/35/1 14/36/1
f 9/37/1 20/38/1 24/39/1
f 25/40/1 18/41/1 8/42/1
f 21/43/1 9/44/1 18/45/1
f 7/46/1 21/47/1 25/48/1
f 12/1/1 17/3/1 4/49/1
f 18/4/1 13/6/1 8/50/1
f 19/7/1 20/9/1 9/51/1
f 16/10/1 21/12/1 7/52/1
f 22/13/1 9/15/1 21/53/1
f 11/16/1 19/18/1 22/54/1
f 2/19/1 22/21/1 16/55/1
f 23/22/1 5/24/1 20/56/1
f 15/25/1 10/27/1 23/57/1
f 6/28/1 23/30/1 19/58/1
f 24/31/1 3/33/1 13/59/1
f 20/34/1 14/36/1 24/60/1
f 9/37/1 24/39/1 18/61/1
f 25/40/1 8/42/1 17/62/1
f 21/43/1 18/45/1 25/63/1
f 7/46/1 25/48/1 12/64/1
Box
none